<?xml version="1.0" encoding="utf-8"?>
<!-- Generator: Adobe Illustrator 21.1.0, SVG Export Plug-In . SVG Version: 6.00 Build 0)  -->
<svg version="1.1" id="Layer_1" xmlns="http://www.w3.org/2000/svg" xmlns:xlink="http://www.w3.org/1999/xlink" x="0px" y="0px"
	 viewBox="0 0 100 100" style="enable-background:new 0 0 100 100;" xml:space="preserve">
<style type="text/css">
	.st0{fill:#0E3C55;}
</style>
<title>FeedbackNeutralSadIcon</title>
<path class="st0" d="M50,0C22.4,0,0.1,22.4,0.1,50s22.4,49.9,50,49.9s49.9-22.4,49.9-50C100,22.3,77.7,0,50.2,0H50z M50,90
	c-22.1,0-40-17.9-40-40s17.9-40,40-40s40,17.9,40,40S72.1,90,50,90z M39.8,39.8c0,3.1-2.5,5.6-5.6,5.6s-5.6-2.5-5.6-5.6
	c0-3.1,2.5-5.6,5.6-5.6S39.8,36.7,39.8,39.8z M71.3,39.8c0,3.1-2.5,5.6-5.6,5.6c-3.1,0-5.6-2.5-5.6-5.6c0-3.1,2.5-5.6,5.6-5.6
	C68.8,34.3,71.3,36.7,71.3,39.8z M33.1,77.7l-7.3-4.4c4.9-8.2,13.9-13.7,24.2-13.7s19.2,5.5,24.2,13.7l-7.3,4.4
	c-3.5-5.7-9.7-9.6-16.9-9.6S36.5,71.9,33.1,77.7z"/>
</svg>
