<?xml version="1.0" encoding="utf-8"?>
<!-- Generator: Adobe Illustrator 21.1.0, SVG Export Plug-In . SVG Version: 6.00 Build 0)  -->
<svg version="1.1" id="Layer_1" xmlns="http://www.w3.org/2000/svg" xmlns:xlink="http://www.w3.org/1999/xlink" x="0px" y="0px"
	 viewBox="0 0 100 100" style="enable-background:new 0 0 100 100;" xml:space="preserve">
<style type="text/css">
	.st0{fill:#0E3C55;}
</style>
<title>MyBestSiteIcon</title>
<path class="st0" d="M50,0C22.4,0,0.1,22.4,0.1,50s22.4,49.9,50,49.9s49.9-22.4,49.9-50C100,22.3,77.7,0,50.2,0H50z M50,90
	c-22.1,0-40-17.9-40-40s17.9-40,40-40s40,17.9,40,40S72.1,90,50,90z M55,39.7l5.3,5.3l5.3-5.3l5.3,5.3l5.3-5.3L65.6,29.1L55,39.7z
	 M34.4,39.7l5.3,5.3l5.3-5.3L34.4,29.1L23.8,39.7l5.3,5.3L34.4,39.7z M50,77.5c11.3,0,21.4-7,25.6-17.5H24.5
	C28.6,70.5,38.7,77.5,50,77.5z"/>
</svg>
