<?xml version="1.0" encoding="utf-8"?>
<!-- Generator: Adobe Illustrator 21.1.0, SVG Export Plug-In . SVG Version: 6.00 Build 0)  -->
<svg version="1.1" id="Layer_1" xmlns="http://www.w3.org/2000/svg" xmlns:xlink="http://www.w3.org/1999/xlink" x="0px" y="0px"
	 viewBox="0 0 100 83.5" style="enable-background:new 0 0 100 83.5;" xml:space="preserve">
<style type="text/css">
	.st0{fill:#0E3C55;}
</style>
<title>SafeSiteIcon</title>
<path class="st0" d="M0,83.5L50,0l50,83.5H0z M47.9,49.8h4.1c0.7,0,1.4-0.2,1.4-0.4V33.9c0-0.2-0.6-0.4-1.4-0.4h-4.1
	c-0.7,0-1.4,0.2-1.4,0.4v15.6C46.6,49.7,47.2,49.8,47.9,49.8z M47.9,65h3.9c0.7,0,1.3-0.1,1.3-0.2v-6.2c0-0.1-0.6-0.2-1.3-0.2h-3.9
	c-0.7,0-1.3,0.1-1.3,0.2v6.2C46.6,65,47.2,65,47.9,65z"/>
</svg>
