<?xml version="1.0" encoding="utf-8"?>
<!-- Generator: Adobe Illustrator 21.1.0, SVG Export Plug-In . SVG Version: 6.00 Build 0)  -->
<svg version="1.1" id="schedulesvg" xmlns="http://www.w3.org/2000/svg" xmlns:xlink="http://www.w3.org/1999/xlink" x="0px"
	 y="0px" viewBox="0 0 100 100" style="enable-background:new 0 0 100 100;" xml:space="preserve">
<style type="text/css">
	.st0{fill:#0D3C55;}
</style>
<g>
	<g id="a">
		<path class="st0" d="M77.7,52.1H49.9v27.8h27.8V52.1z M72.2,0.1v8.7H27.7V0.1H16.5v8.7H11c-6.1,0-11.1,2.8-11.1,8.5c0,0,0,0,0,0
			l-0.1,72.4c0,5.7,5,10.3,11.1,10.3c0,0,0,0,0,0h77.9c6.1,0,11.1-4.6,11.1-10.3V17.3c0-5.7-5-8.6-11.1-8.6h-5.6V0.1H72.2z
			 M88.9,88.7H11V29.5h77.9V88.7z"/>
	</g>
</g>
</svg>
